<svg xmlns="http://www.w3.org/2000/svg" viewBox="0 0 215.55 80.92"><defs><style>.a,.k{fill:#ed1b25;}.a,.b,.c,.d,.e,.f,.g,.h,.i,.j{fill-rule:evenodd;}.b,.l{fill:#faba1c;}.c,.m{fill:#068ed4;}.d,.n{fill:#009e4f;}.e{fill:#fefefe;}.f{fill:#d5d5d7;}.g,.o{fill:#5f5f5f;}.h{fill:#434443;}.i{fill:#22201e;}.j{fill:#babcbe;}</style></defs><title>logo</title><path class="a" d="M7.41,68.89h0a7.43,7.43,0,0,0,7.41-7.41V21.55a7.43,7.43,0,0,0-7.41-7.41h0A7.43,7.43,0,0,0,0,21.55V61.48a7.43,7.43,0,0,0,7.41,7.41Z"/><path class="b" d="M22.22,80.92h0a7.43,7.43,0,0,0,7.41-7.41V11.32a7.43,7.43,0,0,0-7.41-7.41h0a7.43,7.43,0,0,0-7.41,7.41V73.51a7.43,7.43,0,0,0,7.41,7.41Z"/><path class="c" d="M37,75.81h0a7.43,7.43,0,0,0,7.41-7.41v-61A7.43,7.43,0,0,0,37,0h0a7.43,7.43,0,0,0-7.41,7.41v61A7.43,7.43,0,0,0,37,75.81Z"/><path class="d" d="M51.86,71.9h0a7.43,7.43,0,0,0,7.41-7.41V16.74a7.43,7.43,0,0,0-7.41-7.41h0a7.43,7.43,0,0,0-7.41,7.41V64.49a7.43,7.43,0,0,0,7.41,7.41Z"/><path class="e" d="M14.63,18.74C-7.66,33.7,3,68.39,29.65,68.39S67,33.73,44.68,18.74a27.13,27.13,0,0,0-30.05,0Z"/><path class="f" d="M18.29,24.25C1.45,35.56,9.54,61.77,29.65,61.77S57.87,35.58,41,24.25a20.51,20.51,0,0,0-22.72,0Z"/><path class="g" d="M20.59,27.69c-13.44,9-7,29.94,9.06,29.94s22.51-20.9,9.06-29.94a16.37,16.37,0,0,0-18.12,0Z"/><path class="h" d="M21.66,29.29c-11.86,8-6.17,26.42,8,26.42s19.86-18.44,8-26.42a14.44,14.44,0,0,0-16,0Z"/><path class="i" d="M25.22,34.64a8,8,0,1,0,8.87,0,8,8,0,0,0-8.87,0Z"/><path class="j" d="M24.61,38.6a3.78,3.78,0,1,1,4.19,0,3.79,3.79,0,0,1-4.19,0Z"/><path class="e" d="M33.24,49.2a1.86,1.86,0,1,1,2.06,0,1.86,1.86,0,0,1-2.06,0Z"/><path class="k" d="M62.94,15a47.76,47.76,0,0,1,8.39-.63c4,0,7,.77,9,2.45a8.86,8.86,0,0,1,3.08,6.94,9.74,9.74,0,0,1-2.77,7.3c-2.22,2.13-5.58,3.13-9.16,3.13-.77,0-1.45,0-2-.09V45.19H62.94Zm6.58,13.88a7.61,7.61,0,0,0,1.9.14c3.45,0,5.44-1.9,5.44-4.94,0-2.77-1.68-4.58-4.94-4.58a9.36,9.36,0,0,0-2.4.23Z"/><path class="l" d="M86.93,30.14c0-2.95,0-5.17-.18-7.12h5.71l.27,3.81h.14a5.89,5.89,0,0,1,6.94-4.17V29a8.94,8.94,0,0,0-1.68-.14,4.22,4.22,0,0,0-4.4,3.4,8.76,8.76,0,0,0-.18,1.72V45.19H86.93Z"/><path class="m" d="M122.85,33.9c0,8.48-5.53,11.75-10.7,11.75-6.12,0-10.57-4.22-10.57-11.43,0-7.39,4.54-11.7,10.88-11.7S122.85,27.15,122.85,33.9Zm-14.56.18c0,3.81,1.31,6.76,4,6.76,2.45,0,3.76-3,3.76-6.76,0-3.22-1-6.76-3.81-6.76S108.29,30.86,108.29,34.08Z"/><path class="n" d="M150.14,44a29.81,29.81,0,0,1-9,1.54c-5,0-8.62-1.31-11.16-3.81-2.77-2.63-4.26-6.76-4.22-11.47,0-10.48,7.17-15.92,16.1-15.92a18.53,18.53,0,0,1,7.44,1.32L148,21.07a13.53,13.53,0,0,0-6-1.13c-5.21,0-9.25,3.08-9.25,10.16,0,6.62,3.63,10,8.44,10a7.45,7.45,0,0,0,2.72-.36V33h-4.13V27.78h10.43Z"/><path class="l" d="M155,30.14c0-2.95,0-5.17-.18-7.12h5.71l.27,3.81H161a5.89,5.89,0,0,1,6.94-4.17V29a9,9,0,0,0-1.68-.14,4.22,4.22,0,0,0-4.4,3.4,8.72,8.72,0,0,0-.18,1.72V45.19H155Z"/><path class="m" d="M182.56,45.19,182.2,43h-.14a7.31,7.31,0,0,1-5.94,2.68,6.58,6.58,0,0,1-6.76-6.76c0-5.8,5.17-8.43,12.15-8.43v-.36c0-1.36-.73-2.9-3.76-2.9a11.24,11.24,0,0,0-5.62,1.54l-1.22-4.31a17,17,0,0,1,8.12-1.9c7.17,0,9.16,4.49,9.16,9.48v7.89a34.64,34.64,0,0,0,.32,5.31Zm-.82-10.61c-3.13,0-5.94.82-5.94,3.63a2.44,2.44,0,0,0,2.58,2.72,3.4,3.4,0,0,0,3.22-2.36,4.2,4.2,0,0,0,.14-1.09Z"/><path class="k" d="M193.57,15a48.39,48.39,0,0,1,8.25-.63c3.81,0,6.48.41,8.66,1.86a6.7,6.7,0,0,1,3.22,5.9,6.89,6.89,0,0,1-4.81,6.53v.14a7.54,7.54,0,0,1,5.85,7.44,8.17,8.17,0,0,1-2.86,6.35c-2.13,1.86-5.67,2.9-11.43,2.9a46.76,46.76,0,0,1-6.89-.45Zm6.58,11.84h1.95c3.22,0,5-1.59,5-3.95s-1.54-3.67-4.49-3.67a10,10,0,0,0-2.49.23Zm0,13.56a15.08,15.08,0,0,0,2.22.09c2.95,0,5.49-1.27,5.49-4.44s-2.58-4.4-5.67-4.4h-2Z"/><path class="o" d="M65.89,51.77l-1.3,6.84H63.35l1.3-6.84Z"/><path class="o" d="M66.07,58.61l.65-3.45c.11-.57.18-1.07.24-1.49h1.11l-.12,1h0a2.28,2.28,0,0,1,1.93-1.08A1.3,1.3,0,0,1,71.27,55a5.83,5.83,0,0,1-.08.79l-.53,2.8H69.42l.51-2.67a3.83,3.83,0,0,0,.06-.59c0-.47-.17-.8-.71-.8s-1.35.68-1.57,1.9l-.41,2.16Z"/><path class="o" d="M72.22,57.45a3.26,3.26,0,0,0,1.33.37c.5,0,.79-.27.79-.59s-.16-.48-.7-.73-1.1-.71-1.1-1.31c0-1,.89-1.64,2.1-1.64a2.64,2.64,0,0,1,1.27.27l-.31.88a2.43,2.43,0,0,0-1-.24c-.45,0-.76.22-.76.55s.23.46.71.68,1.13.65,1.13,1.34c0,1.1-1,1.7-2.21,1.7a2.72,2.72,0,0,1-1.51-.41Z"/><path class="o" d="M79,52.3l-.25,1.37H80l-.18,1H78.6l-.35,1.83a3.81,3.81,0,0,0-.1.76.41.41,0,0,0,.47.46,2.75,2.75,0,0,0,.43,0l-.11,1a2.42,2.42,0,0,1-.8.11c-.87,0-1.24-.48-1.24-1a4.45,4.45,0,0,1,.11-1l.41-2.09h-.69l.18-1h.69l.2-1.08Z"/><path class="o" d="M83.6,58.61c0-.29.05-.74.1-1.19h0a2.13,2.13,0,0,1-1.95,1.31A1.62,1.62,0,0,1,80.12,57a3.45,3.45,0,0,1,3.71-3.42,6.32,6.32,0,0,1,1.62.23L85,56.29a12.26,12.26,0,0,0-.2,2.31Zm.47-4a2.31,2.31,0,0,0-.56-.06,2.22,2.22,0,0,0-2.08,2.27c0,.51.22,1,.8,1s1.36-.66,1.61-2Z"/><path class="o" d="M86.2,59.45a3.26,3.26,0,0,0,1.47.31c.78,0,1.46-.31,1.74-1.57l.11-.53h0a2,2,0,0,1-1.68.91,1.74,1.74,0,0,1-1.73-1.85,3.21,3.21,0,0,1,3.43-3.19,5,5,0,0,1,1.88.37l-.73,4a3.65,3.65,0,0,1-1.09,2.27,3.2,3.2,0,0,1-1.94.55,3.55,3.55,0,0,1-1.73-.37ZM90,54.64a2.15,2.15,0,0,0-.76-.14,2,2,0,0,0-1.89,2.08c0,.55.25,1,.91,1s1.3-.68,1.49-1.69Z"/><path class="o" d="M92,58.61l.56-3c.13-.73.2-1.54.25-2h1.09c0,.37-.08.73-.13,1.1h0a1.94,1.94,0,0,1,1.65-1.22h.29l-.24,1.2h-.25c-.92,0-1.46.88-1.66,2l-.35,1.85Z"/><path class="o" d="M99.15,58.61c0-.29.05-.74.1-1.19h0a2.13,2.13,0,0,1-1.95,1.31A1.62,1.62,0,0,1,95.67,57a3.45,3.45,0,0,1,3.71-3.42,6.32,6.32,0,0,1,1.62.23l-.5,2.52a12.26,12.26,0,0,0-.2,2.31Zm.47-4a2.31,2.31,0,0,0-.56-.06A2.22,2.22,0,0,0,97,56.77c0,.51.22,1,.8,1s1.36-.66,1.61-2Z"/><path class="o" d="M101.6,58.61l.64-3.45c.1-.57.18-1.07.23-1.49h1.08l-.12.9h0a2.2,2.2,0,0,1,1.84-1,1.15,1.15,0,0,1,1.28,1.08,2.24,2.24,0,0,1,1.89-1.08A1.27,1.27,0,0,1,109.77,55a5.47,5.47,0,0,1-.07.8l-.54,2.85H108l.5-2.68a3.46,3.46,0,0,0,.06-.58c0-.48-.19-.8-.69-.8s-1.26.72-1.45,1.8L106,58.61h-1.19l.51-2.72a3.66,3.66,0,0,0,.06-.54c0-.41-.12-.8-.68-.8s-1.3.8-1.48,1.84l-.41,2.22Z"/><path class="o" d="M113.88,51.89a8.42,8.42,0,0,1,1.79-.17,3.16,3.16,0,0,1,1.85.48,1.6,1.6,0,0,1,.71,1.43,2.28,2.28,0,0,1-.9,1.83,3.82,3.82,0,0,1-2.29.64,6.61,6.61,0,0,1-.72-.05l-.5,2.57h-1.21Zm.61,3.14a3.68,3.68,0,0,0,.72.07c1,0,1.78-.53,1.78-1.38s-.62-1-1.3-1a3.05,3.05,0,0,0-.76.07Z"/><path class="o" d="M118.31,58.61l.56-3c.13-.73.2-1.54.25-2h1.09c0,.37-.08.73-.13,1.1h0a1.94,1.94,0,0,1,1.65-1.22h.29l-.24,1.2h-.25c-.92,0-1.46.88-1.66,2l-.35,1.85Z"/><path class="o" d="M127.48,55.72a2.94,2.94,0,0,1-3.05,3,2.09,2.09,0,0,1-2.24-2.15,3,3,0,0,1,3-3A2.11,2.11,0,0,1,127.48,55.72Zm-4,.84a1.11,1.11,0,0,0,1.13,1.22c.93,0,1.59-1,1.59-2a1.13,1.13,0,0,0-1.11-1.26C124,54.5,123.47,55.62,123.47,56.56Z"/><path class="o" d="M128.24,58.61l.75-4h-.65l.18-1h.65l0-.21a2.55,2.55,0,0,1,2.7-2.23,2.91,2.91,0,0,1,1.32.29l-.35,1a2.5,2.5,0,0,0-1.1-.24,1.29,1.29,0,0,0-1.35,1.2l0,.23h2.93l-.94,4.94h-1.23l.74-4h-1.67l-.75,4Z"/><path class="o" d="M133.84,58.61l1.39-7.27h1.24l-1.39,7.27Z"/><path class="o" d="M140.68,58.3a4.31,4.31,0,0,1-1.9.43,2,2,0,0,1-2.17-2.12,3,3,0,0,1,3-3.06c1,0,1.73.55,1.73,1.43,0,1.28-1.41,1.64-3.5,1.59a1.37,1.37,0,0,0,.14.68,1.23,1.23,0,0,0,1.12.52,3.35,3.35,0,0,0,1.5-.34Zm-1.26-3.86a1.61,1.61,0,0,0-1.49,1.22c1.38,0,2.2-.12,2.2-.7C140.13,54.64,139.84,54.45,139.42,54.45Z"/><path class="o" d="M145.08,51.89a8.42,8.42,0,0,1,1.79-.17,3.16,3.16,0,0,1,1.85.48,1.6,1.6,0,0,1,.71,1.43,2.28,2.28,0,0,1-.9,1.83,3.82,3.82,0,0,1-2.29.64,6.61,6.61,0,0,1-.72-.05l-.5,2.57H143.8Zm.61,3.14a3.68,3.68,0,0,0,.72.07c1,0,1.78-.53,1.78-1.38s-.62-1-1.3-1a3.05,3.05,0,0,0-.76.07Z"/><path class="o" d="M149.5,58.61l.93-4.94h1.24l-.94,4.94Zm1.12-6.31a.72.72,0,0,1,.74-.73.63.63,0,0,1,.67.65.71.71,0,0,1-.76.72A.62.62,0,0,1,150.62,52.3Z"/><path class="o" d="M156.07,58.4a3.73,3.73,0,0,1-1.6.32,2,2,0,0,1-2.18-2,3.18,3.18,0,0,1,3.33-3.15,2.93,2.93,0,0,1,1.16.23l-.31.93a2.07,2.07,0,0,0-.87-.18,2,2,0,0,0-2,2,1.12,1.12,0,0,0,1.22,1.2,2.65,2.65,0,0,0,1.2-.28Z"/><path class="o" d="M159.67,52.3l-.25,1.37h1.17l-.18,1h-1.18l-.35,1.83a3.81,3.81,0,0,0-.1.76.41.41,0,0,0,.47.46,2.75,2.75,0,0,0,.43,0l-.11,1a2.42,2.42,0,0,1-.8.11c-.87,0-1.24-.48-1.24-1a4.45,4.45,0,0,1,.11-1l.41-2.09h-.69l.18-1h.69l.2-1.08Z"/><path class="o" d="M166.13,53.67l-.66,3.45c-.11.57-.18,1.07-.24,1.49h-1.11l.13-.91h0a2.42,2.42,0,0,1-1.87,1c-.75,0-1.41-.35-1.41-1.51a5,5,0,0,1,.09-.86l.52-2.69h1.23l-.49,2.61a3.33,3.33,0,0,0-.08.66c0,.45.18.78.72.78s1.31-.69,1.52-1.81l.43-2.24Z"/><path class="o" d="M166.65,58.61l.56-3c.13-.73.2-1.54.25-2h1.09c0,.37-.08.73-.13,1.1h0a1.94,1.94,0,0,1,1.65-1.22h.29l-.24,1.2h-.25c-.92,0-1.46.88-1.66,2l-.35,1.85Z"/><path class="o" d="M174.57,58.3a4.31,4.31,0,0,1-1.9.43,2,2,0,0,1-2.17-2.12,3,3,0,0,1,3-3.06c1,0,1.73.55,1.73,1.43,0,1.28-1.41,1.64-3.5,1.59a1.37,1.37,0,0,0,.14.68,1.23,1.23,0,0,0,1.12.52,3.35,3.35,0,0,0,1.5-.34Zm-1.26-3.86a1.61,1.61,0,0,0-1.49,1.22c1.38,0,2.2-.12,2.2-.7C174,54.64,173.73,54.45,173.31,54.45Z"/><path class="o" d="M183.67,58.26a7.68,7.68,0,0,1-2.36.42,3.54,3.54,0,0,1-2.49-.82,2.87,2.87,0,0,1-.88-2.17,3.76,3.76,0,0,1,1.39-2.94,5,5,0,0,1,3.2-1,4.63,4.63,0,0,1,2,.35l-.38,1a4,4,0,0,0-1.68-.33,3.33,3.33,0,0,0-2.13.72,2.75,2.75,0,0,0-1,2.11c0,1.32.79,2.06,2.26,2.06a2.7,2.7,0,0,0,1-.18l.31-1.62h-1.37l.19-1h2.59Z"/><path class="o" d="M184.95,58.61l.56-3c.13-.73.2-1.54.25-2h1.09c0,.37-.08.73-.13,1.1h0a1.94,1.94,0,0,1,1.65-1.22h.29l-.24,1.2h-.25c-.92,0-1.46.88-1.66,2l-.35,1.85Z"/><path class="o" d="M192.13,58.61c0-.29.05-.74.1-1.19h0a2.13,2.13,0,0,1-1.95,1.31A1.62,1.62,0,0,1,188.65,57a3.45,3.45,0,0,1,3.71-3.42,6.32,6.32,0,0,1,1.62.23l-.5,2.52a12.26,12.26,0,0,0-.2,2.31Zm.47-4a2.31,2.31,0,0,0-.56-.06A2.22,2.22,0,0,0,190,56.77c0,.51.22,1,.8,1s1.36-.66,1.61-2Z"/><path class="o" d="M197.12,51.34l-.64,3.08h0a2.24,2.24,0,0,1,1.79-.89,1.66,1.66,0,0,1,1.65,1.86,3.29,3.29,0,0,1-3.37,3.33c-1.13,0-1.83-.46-1.83-1.44a4.81,4.81,0,0,1,.11-.91l1-5Zm-1,5.14a2.57,2.57,0,0,0-.06.62.67.67,0,0,0,.76.67,2.1,2.1,0,0,0,1.86-2.18c0-.56-.27-1.06-.89-1.06s-1.4.67-1.62,1.78Z"/><path class="o" d="M203.1,51.34l-.64,3.08h0a2.24,2.24,0,0,1,1.79-.89,1.66,1.66,0,0,1,1.65,1.86,3.29,3.29,0,0,1-3.37,3.33c-1.13,0-1.83-.46-1.83-1.44a4.81,4.81,0,0,1,.11-.91l1-5Zm-1,5.14a2.57,2.57,0,0,0-.06.62.67.67,0,0,0,.76.67,2.1,2.1,0,0,0,1.86-2.18c0-.56-.27-1.06-.89-1.06s-1.4.67-1.62,1.78Z"/><path class="o" d="M210.69,58.3a4.31,4.31,0,0,1-1.9.43,2,2,0,0,1-2.17-2.12,3,3,0,0,1,3-3.06c1,0,1.73.55,1.73,1.43,0,1.28-1.41,1.64-3.5,1.59a1.37,1.37,0,0,0,.14.68,1.23,1.23,0,0,0,1.12.52,3.35,3.35,0,0,0,1.5-.34Zm-1.26-3.86a1.61,1.61,0,0,0-1.49,1.22c1.38,0,2.2-.12,2.2-.7C210.15,54.64,209.85,54.45,209.44,54.45Z"/><path class="o" d="M211.8,58.61l.56-3c.13-.73.2-1.54.25-2h1.09c0,.37-.08.73-.13,1.1h0a1.94,1.94,0,0,1,1.65-1.22h.29l-.24,1.2H215c-.92,0-1.46.88-1.66,2L213,58.61Z"/></svg>